<mxfile host="app.diagrams.net" modified="2022-03-28T08:45:18.401Z" agent="5.0 (Windows NT 10.0; Win64; x64) AppleWebKit/537.36 (KHTML, like Gecko) Chrome/99.0.4844.51 Safari/537.36 Edg/99.0.1150.39" etag="w7isNFhD8u_etCWJNuz7" version="17.2.4" type="github">
  <diagram id="vx9gxHM6k6enUax1p6K6" name="Page-1">
    <mxGraphModel dx="1885" dy="794" grid="1" gridSize="10" guides="1" tooltips="1" connect="1" arrows="1" fold="1" page="1" pageScale="1" pageWidth="827" pageHeight="1169" math="0" shadow="0">
      <root>
        <mxCell id="0" />
        <mxCell id="1" parent="0" />
        <mxCell id="Nuy2MIkLEGF_IpoQAE7Y-3" value="" style="ellipse;whiteSpace=wrap;html=1;strokeWidth=2;fontSize=16;fontStyle=1" parent="1" vertex="1">
          <mxGeometry x="155.5" y="347" width="131" height="87.33" as="geometry" />
        </mxCell>
        <mxCell id="Nuy2MIkLEGF_IpoQAE7Y-1" value="" style="ellipse;whiteSpace=wrap;html=1;strokeWidth=2;fontSize=16;fontStyle=1" parent="1" vertex="1">
          <mxGeometry x="125.5" y="182.67" width="140" height="93.33" as="geometry" />
        </mxCell>
        <mxCell id="Nuy2MIkLEGF_IpoQAE7Y-2" value="" style="ellipse;whiteSpace=wrap;html=1;strokeWidth=2;fontSize=16;fontStyle=1" parent="1" vertex="1">
          <mxGeometry x="35" y="266.5" width="135" height="90" as="geometry" />
        </mxCell>
        <mxCell id="Nuy2MIkLEGF_IpoQAE7Y-6" value="" style="ellipse;whiteSpace=wrap;html=1;aspect=fixed;fillColor=#dae8fc;strokeColor=#6c8ebf;strokeWidth=2;fontSize=16;fontStyle=1" parent="1" vertex="1">
          <mxGeometry x="166" y="193.5" width="40" height="40" as="geometry" />
        </mxCell>
        <mxCell id="Nuy2MIkLEGF_IpoQAE7Y-7" value="" style="ellipse;whiteSpace=wrap;html=1;aspect=fixed;fillColor=#dae8fc;strokeColor=#6c8ebf;strokeWidth=2;fontSize=16;fontStyle=1" parent="1" vertex="1">
          <mxGeometry x="181" y="236.5" width="30" height="30" as="geometry" />
        </mxCell>
        <mxCell id="Nuy2MIkLEGF_IpoQAE7Y-8" value="" style="ellipse;whiteSpace=wrap;html=1;aspect=fixed;fillColor=#dae8fc;strokeColor=#6c8ebf;strokeWidth=2;fontSize=16;fontStyle=1" parent="1" vertex="1">
          <mxGeometry x="216" y="243.5" width="10" height="10" as="geometry" />
        </mxCell>
        <mxCell id="Nuy2MIkLEGF_IpoQAE7Y-9" value="" style="ellipse;whiteSpace=wrap;html=1;aspect=fixed;fillColor=#dae8fc;strokeColor=#6c8ebf;strokeWidth=2;fontSize=16;fontStyle=1" parent="1" vertex="1">
          <mxGeometry x="216" y="213.5" width="20" height="20" as="geometry" />
        </mxCell>
        <mxCell id="Nuy2MIkLEGF_IpoQAE7Y-10" value="" style="ellipse;whiteSpace=wrap;html=1;aspect=fixed;fillColor=#dae8fc;strokeColor=#6c8ebf;strokeWidth=2;fontSize=16;fontStyle=1" parent="1" vertex="1">
          <mxGeometry x="160" y="236.5" width="10" height="10" as="geometry" />
        </mxCell>
        <mxCell id="Nuy2MIkLEGF_IpoQAE7Y-13" value="" style="ellipse;whiteSpace=wrap;html=1;aspect=fixed;fillColor=#f8cecc;strokeColor=#b85450;strokeWidth=2;fontSize=16;fontStyle=1" parent="1" vertex="1">
          <mxGeometry x="77.5" y="274" width="40" height="40" as="geometry" />
        </mxCell>
        <mxCell id="Nuy2MIkLEGF_IpoQAE7Y-14" value="" style="ellipse;whiteSpace=wrap;html=1;aspect=fixed;fillColor=#f8cecc;strokeColor=#b85450;strokeWidth=2;fontSize=16;fontStyle=1" parent="1" vertex="1">
          <mxGeometry x="92.5" y="317" width="30" height="30" as="geometry" />
        </mxCell>
        <mxCell id="Nuy2MIkLEGF_IpoQAE7Y-15" value="" style="ellipse;whiteSpace=wrap;html=1;aspect=fixed;fillColor=#f8cecc;strokeColor=#b85450;strokeWidth=2;fontSize=16;fontStyle=1" parent="1" vertex="1">
          <mxGeometry x="127.5" y="324" width="10" height="10" as="geometry" />
        </mxCell>
        <mxCell id="Nuy2MIkLEGF_IpoQAE7Y-16" value="" style="ellipse;whiteSpace=wrap;html=1;aspect=fixed;fillColor=#f8cecc;strokeColor=#b85450;strokeWidth=2;fontSize=16;fontStyle=1" parent="1" vertex="1">
          <mxGeometry x="127.5" y="294" width="20" height="20" as="geometry" />
        </mxCell>
        <mxCell id="Nuy2MIkLEGF_IpoQAE7Y-17" value="" style="ellipse;whiteSpace=wrap;html=1;aspect=fixed;fillColor=#f8cecc;strokeColor=#b85450;strokeWidth=2;fontSize=16;fontStyle=1" parent="1" vertex="1">
          <mxGeometry x="71.5" y="317" width="10" height="10" as="geometry" />
        </mxCell>
        <mxCell id="Nuy2MIkLEGF_IpoQAE7Y-18" value="" style="ellipse;whiteSpace=wrap;html=1;aspect=fixed;fillColor=#e1d5e7;strokeColor=#9673a6;strokeWidth=2;fontSize=16;fontStyle=1" parent="1" vertex="1">
          <mxGeometry x="193.5" y="355.47999999999996" width="40" height="40" as="geometry" />
        </mxCell>
        <mxCell id="Nuy2MIkLEGF_IpoQAE7Y-19" value="" style="ellipse;whiteSpace=wrap;html=1;aspect=fixed;fillColor=#e1d5e7;strokeColor=#9673a6;strokeWidth=2;fontSize=16;fontStyle=1" parent="1" vertex="1">
          <mxGeometry x="208.5" y="398.47999999999996" width="30" height="30" as="geometry" />
        </mxCell>
        <mxCell id="Nuy2MIkLEGF_IpoQAE7Y-20" value="" style="ellipse;whiteSpace=wrap;html=1;aspect=fixed;fillColor=#e1d5e7;strokeColor=#9673a6;strokeWidth=2;fontSize=16;fontStyle=1" parent="1" vertex="1">
          <mxGeometry x="243.5" y="405.47999999999996" width="10" height="10" as="geometry" />
        </mxCell>
        <mxCell id="Nuy2MIkLEGF_IpoQAE7Y-21" value="" style="ellipse;whiteSpace=wrap;html=1;aspect=fixed;fillColor=#e1d5e7;strokeColor=#9673a6;strokeWidth=2;fontSize=16;fontStyle=1" parent="1" vertex="1">
          <mxGeometry x="243.5" y="375.47999999999996" width="20" height="20" as="geometry" />
        </mxCell>
        <mxCell id="Nuy2MIkLEGF_IpoQAE7Y-22" value="" style="ellipse;whiteSpace=wrap;html=1;aspect=fixed;fillColor=#e1d5e7;strokeColor=#9673a6;strokeWidth=2;fontSize=16;fontStyle=1" parent="1" vertex="1">
          <mxGeometry x="187.5" y="398.47999999999996" width="10" height="10" as="geometry" />
        </mxCell>
        <mxCell id="Nuy2MIkLEGF_IpoQAE7Y-42" value="" style="ellipse;whiteSpace=wrap;html=1;strokeWidth=2;fontSize=16;fontStyle=1" parent="1" vertex="1">
          <mxGeometry x="743" y="153.99999999999997" width="140" height="93.33" as="geometry" />
        </mxCell>
        <mxCell id="Nuy2MIkLEGF_IpoQAE7Y-43" value="" style="ellipse;whiteSpace=wrap;html=1;aspect=fixed;fillColor=#fff2cc;strokeColor=#d6b656;strokeWidth=2;fontSize=16;fontStyle=1" parent="1" vertex="1">
          <mxGeometry x="783" y="167.66" width="40" height="40" as="geometry" />
        </mxCell>
        <mxCell id="Nuy2MIkLEGF_IpoQAE7Y-44" value="" style="ellipse;whiteSpace=wrap;html=1;aspect=fixed;fillColor=#fff2cc;strokeColor=#d6b656;strokeWidth=2;fontSize=16;fontStyle=1" parent="1" vertex="1">
          <mxGeometry x="798" y="210.66" width="30" height="30" as="geometry" />
        </mxCell>
        <mxCell id="Nuy2MIkLEGF_IpoQAE7Y-45" value="" style="ellipse;whiteSpace=wrap;html=1;aspect=fixed;fillColor=#fff2cc;strokeColor=#d6b656;strokeWidth=2;fontSize=16;fontStyle=1" parent="1" vertex="1">
          <mxGeometry x="833" y="217.66" width="10" height="10" as="geometry" />
        </mxCell>
        <mxCell id="Nuy2MIkLEGF_IpoQAE7Y-46" value="" style="ellipse;whiteSpace=wrap;html=1;aspect=fixed;fillColor=#fff2cc;strokeColor=#d6b656;strokeWidth=2;fontSize=16;fontStyle=1" parent="1" vertex="1">
          <mxGeometry x="833" y="187.66" width="20" height="20" as="geometry" />
        </mxCell>
        <mxCell id="Nuy2MIkLEGF_IpoQAE7Y-47" value="" style="ellipse;whiteSpace=wrap;html=1;aspect=fixed;fillColor=#fff2cc;strokeColor=#d6b656;strokeWidth=2;fontSize=16;fontStyle=1" parent="1" vertex="1">
          <mxGeometry x="777" y="210.66" width="10" height="10" as="geometry" />
        </mxCell>
        <mxCell id="Nuy2MIkLEGF_IpoQAE7Y-48" value="" style="ellipse;whiteSpace=wrap;html=1;strokeWidth=2;fontSize=16;fontStyle=1" parent="1" vertex="1">
          <mxGeometry x="720" y="282.15" width="140" height="93.33" as="geometry" />
        </mxCell>
        <mxCell id="Nuy2MIkLEGF_IpoQAE7Y-49" value="" style="ellipse;whiteSpace=wrap;html=1;aspect=fixed;fillColor=#d5e8d4;strokeColor=#82b366;strokeWidth=2;fontSize=16;fontStyle=1" parent="1" vertex="1">
          <mxGeometry x="765" y="292.96999999999997" width="40" height="40" as="geometry" />
        </mxCell>
        <mxCell id="Nuy2MIkLEGF_IpoQAE7Y-50" value="" style="ellipse;whiteSpace=wrap;html=1;aspect=fixed;fillColor=#d5e8d4;strokeColor=#82b366;strokeWidth=2;fontSize=16;fontStyle=1" parent="1" vertex="1">
          <mxGeometry x="780" y="335.96999999999997" width="30" height="30" as="geometry" />
        </mxCell>
        <mxCell id="Nuy2MIkLEGF_IpoQAE7Y-51" value="" style="ellipse;whiteSpace=wrap;html=1;aspect=fixed;fillColor=#d5e8d4;strokeColor=#82b366;strokeWidth=2;fontSize=16;fontStyle=1" parent="1" vertex="1">
          <mxGeometry x="815" y="342.96999999999997" width="10" height="10" as="geometry" />
        </mxCell>
        <mxCell id="Nuy2MIkLEGF_IpoQAE7Y-52" value="" style="ellipse;whiteSpace=wrap;html=1;aspect=fixed;fillColor=#d5e8d4;strokeColor=#82b366;strokeWidth=2;fontSize=16;fontStyle=1" parent="1" vertex="1">
          <mxGeometry x="815" y="312.96999999999997" width="20" height="20" as="geometry" />
        </mxCell>
        <mxCell id="Nuy2MIkLEGF_IpoQAE7Y-53" value="" style="ellipse;whiteSpace=wrap;html=1;aspect=fixed;fillColor=#d5e8d4;strokeColor=#82b366;strokeWidth=2;fontSize=16;fontStyle=1" parent="1" vertex="1">
          <mxGeometry x="759" y="335.96999999999997" width="10" height="10" as="geometry" />
        </mxCell>
        <mxCell id="Nuy2MIkLEGF_IpoQAE7Y-54" value="&lt;span style=&quot;font-size: 16px;&quot;&gt;历史对象实体类1&lt;/span&gt;" style="rounded=0;whiteSpace=wrap;html=1;fontFamily=Times New Roman;fontSize=16;fillColor=default;strokeWidth=2;fontStyle=1" parent="1" vertex="1">
          <mxGeometry x="35" y="207.66" width="135" height="20" as="geometry" />
        </mxCell>
        <mxCell id="Nuy2MIkLEGF_IpoQAE7Y-59" value="&lt;span style=&quot;font-size: 16px;&quot;&gt;......&lt;/span&gt;" style="text;html=1;strokeColor=none;fillColor=none;align=center;verticalAlign=middle;whiteSpace=wrap;rounded=0;fontFamily=Times New Roman;fontSize=16;strokeWidth=2;fontStyle=1" parent="1" vertex="1">
          <mxGeometry x="166" y="317" width="60" height="30" as="geometry" />
        </mxCell>
        <mxCell id="Nuy2MIkLEGF_IpoQAE7Y-60" value="&lt;span style=&quot;font-size: 16px;&quot;&gt;时间实体&lt;/span&gt;" style="rounded=0;whiteSpace=wrap;html=1;fontFamily=Times New Roman;fontSize=16;fillColor=default;strokeWidth=2;fontStyle=1" parent="1" vertex="1">
          <mxGeometry x="853" y="210" width="87" height="24.5" as="geometry" />
        </mxCell>
        <mxCell id="Nuy2MIkLEGF_IpoQAE7Y-61" value="&lt;span style=&quot;font-size: 16px;&quot;&gt;历史对象实体类2&lt;/span&gt;" style="rounded=0;whiteSpace=wrap;html=1;fontFamily=Times New Roman;fontSize=16;fillColor=default;strokeWidth=2;fontStyle=1" parent="1" vertex="1">
          <mxGeometry x="-59.5" y="280" width="129.5" height="28.65" as="geometry" />
        </mxCell>
        <mxCell id="Nuy2MIkLEGF_IpoQAE7Y-62" value="&lt;span style=&quot;font-size: 16px;&quot;&gt;历史对象实体类n&lt;/span&gt;" style="rounded=0;whiteSpace=wrap;html=1;fontFamily=Times New Roman;fontSize=16;fillColor=default;strokeWidth=2;fontStyle=1" parent="1" vertex="1">
          <mxGeometry x="40" y="375.48" width="141" height="24.52" as="geometry" />
        </mxCell>
        <mxCell id="Nuy2MIkLEGF_IpoQAE7Y-63" value="&lt;span style=&quot;font-size: 16px;&quot;&gt;地点实体&lt;/span&gt;" style="rounded=0;whiteSpace=wrap;html=1;fontFamily=Times New Roman;fontSize=16;fillColor=default;strokeWidth=2;fontStyle=1" parent="1" vertex="1">
          <mxGeometry x="825" y="350" width="85" height="22.97" as="geometry" />
        </mxCell>
        <mxCell id="Nuy2MIkLEGF_IpoQAE7Y-69" value="" style="ellipse;whiteSpace=wrap;html=1;strokeWidth=2;fontSize=16;fontStyle=1" parent="1" vertex="1">
          <mxGeometry x="394" y="55.99999999999997" width="140" height="93.33" as="geometry" />
        </mxCell>
        <mxCell id="Nuy2MIkLEGF_IpoQAE7Y-70" value="" style="ellipse;whiteSpace=wrap;html=1;aspect=fixed;fillColor=#ffe6cc;strokeColor=#d79b00;strokeWidth=2;fontSize=16;fontStyle=1" parent="1" vertex="1">
          <mxGeometry x="436" y="66.82" width="40" height="40" as="geometry" />
        </mxCell>
        <mxCell id="Nuy2MIkLEGF_IpoQAE7Y-71" value="" style="ellipse;whiteSpace=wrap;html=1;aspect=fixed;fillColor=#ffe6cc;strokeColor=#d79b00;strokeWidth=2;fontSize=16;fontStyle=1" parent="1" vertex="1">
          <mxGeometry x="455" y="110.82" width="30" height="30" as="geometry" />
        </mxCell>
        <mxCell id="Nuy2MIkLEGF_IpoQAE7Y-72" value="" style="ellipse;whiteSpace=wrap;html=1;aspect=fixed;fillColor=#ffe6cc;strokeColor=#d79b00;strokeWidth=2;fontSize=16;fontStyle=1" parent="1" vertex="1">
          <mxGeometry x="495" y="124.47999999999999" width="10" height="10" as="geometry" />
        </mxCell>
        <mxCell id="Nuy2MIkLEGF_IpoQAE7Y-73" value="" style="ellipse;whiteSpace=wrap;html=1;aspect=fixed;fillColor=#ffe6cc;strokeColor=#d79b00;strokeWidth=2;fontSize=16;fontStyle=1" parent="1" vertex="1">
          <mxGeometry x="493" y="85.82" width="20" height="20" as="geometry" />
        </mxCell>
        <mxCell id="Nuy2MIkLEGF_IpoQAE7Y-74" value="" style="ellipse;whiteSpace=wrap;html=1;aspect=fixed;fillColor=#ffe6cc;strokeColor=#d79b00;strokeWidth=2;fontSize=16;fontStyle=1" parent="1" vertex="1">
          <mxGeometry x="434" y="110.82" width="10" height="10" as="geometry" />
        </mxCell>
        <mxCell id="Nuy2MIkLEGF_IpoQAE7Y-64" value="&lt;span style=&quot;font-size: 16px;&quot;&gt;子事件实体（时空知识）&lt;/span&gt;" style="rounded=0;whiteSpace=wrap;html=1;fontFamily=Times New Roman;fontSize=16;fillColor=default;strokeWidth=2;fontStyle=1" parent="1" vertex="1">
          <mxGeometry x="490" y="50" width="180" height="30" as="geometry" />
        </mxCell>
        <mxCell id="Nuy2MIkLEGF_IpoQAE7Y-85" value="" style="endArrow=classicThin;html=1;rounded=0;sketch=0;fontFamily=Times New Roman;fontSize=16;endFill=1;jumpStyle=none;strokeWidth=2;fontStyle=1" parent="1" edge="1">
          <mxGeometry width="50" height="50" relative="1" as="geometry">
            <mxPoint x="260" y="370" as="sourcePoint" />
            <mxPoint x="430" y="100" as="targetPoint" />
          </mxGeometry>
        </mxCell>
        <mxCell id="Nuy2MIkLEGF_IpoQAE7Y-86" value="" style="endArrow=classicThin;html=1;rounded=0;sketch=0;fontFamily=Times New Roman;fontSize=16;endFill=1;jumpStyle=none;strokeWidth=2;fontStyle=1" parent="1" edge="1">
          <mxGeometry width="50" height="50" relative="1" as="geometry">
            <mxPoint x="260" y="370" as="sourcePoint" />
            <mxPoint x="490" y="140" as="targetPoint" />
          </mxGeometry>
        </mxCell>
        <mxCell id="Nuy2MIkLEGF_IpoQAE7Y-87" value="" style="endArrow=classicThin;html=1;rounded=0;sketch=0;fontFamily=Times New Roman;fontSize=16;endFill=1;jumpStyle=none;startArrow=classicThin;startFill=1;strokeWidth=2;fontStyle=1" parent="1" edge="1">
          <mxGeometry width="50" height="50" relative="1" as="geometry">
            <mxPoint x="260" y="370" as="sourcePoint" />
            <mxPoint x="450" y="140" as="targetPoint" />
          </mxGeometry>
        </mxCell>
        <mxCell id="Nuy2MIkLEGF_IpoQAE7Y-88" value="" style="endArrow=classicThin;html=1;rounded=0;sketch=0;fontFamily=Times New Roman;fontSize=16;endFill=1;jumpStyle=none;startArrow=classicThin;startFill=1;strokeWidth=2;fontStyle=1" parent="1" edge="1">
          <mxGeometry width="50" height="50" relative="1" as="geometry">
            <mxPoint x="520" y="100" as="sourcePoint" />
            <mxPoint x="770" y="190" as="targetPoint" />
          </mxGeometry>
        </mxCell>
        <mxCell id="Nuy2MIkLEGF_IpoQAE7Y-89" value="" style="endArrow=classicThin;html=1;rounded=0;sketch=0;fontFamily=Times New Roman;fontSize=16;endFill=1;jumpStyle=none;startArrow=none;startFill=1;strokeWidth=2;fontStyle=1" parent="1" source="Nuy2MIkLEGF_IpoQAE7Y-170" edge="1">
          <mxGeometry width="50" height="50" relative="1" as="geometry">
            <mxPoint x="750" y="320" as="sourcePoint" />
            <mxPoint x="520" y="100" as="targetPoint" />
          </mxGeometry>
        </mxCell>
        <mxCell id="Nuy2MIkLEGF_IpoQAE7Y-90" value="" style="endArrow=classicThin;html=1;rounded=0;sketch=0;fontFamily=Times New Roman;fontSize=16;endFill=1;jumpStyle=none;startArrow=classicThin;startFill=1;strokeWidth=2;fontStyle=1" parent="1" edge="1">
          <mxGeometry width="50" height="50" relative="1" as="geometry">
            <mxPoint x="510" y="130" as="sourcePoint" />
            <mxPoint x="770" y="190" as="targetPoint" />
          </mxGeometry>
        </mxCell>
        <mxCell id="Nuy2MIkLEGF_IpoQAE7Y-91" value="" style="endArrow=classicThin;html=1;rounded=0;sketch=0;fontFamily=Times New Roman;fontSize=16;endFill=1;jumpStyle=none;startArrow=classicThin;startFill=1;strokeWidth=2;fontStyle=1" parent="1" edge="1">
          <mxGeometry width="50" height="50" relative="1" as="geometry">
            <mxPoint x="510" y="130" as="sourcePoint" />
            <mxPoint x="750" y="320" as="targetPoint" />
          </mxGeometry>
        </mxCell>
        <mxCell id="Nuy2MIkLEGF_IpoQAE7Y-92" value="" style="endArrow=classicThin;html=1;rounded=0;sketch=0;fontFamily=Times New Roman;fontSize=16;endFill=1;jumpStyle=none;startArrow=classicThin;startFill=1;strokeWidth=2;fontStyle=1" parent="1" edge="1">
          <mxGeometry width="50" height="50" relative="1" as="geometry">
            <mxPoint x="490" y="130" as="sourcePoint" />
            <mxPoint x="770" y="190" as="targetPoint" />
          </mxGeometry>
        </mxCell>
        <mxCell id="Nuy2MIkLEGF_IpoQAE7Y-93" value="" style="endArrow=classicThin;html=1;rounded=0;sketch=0;fontFamily=Times New Roman;fontSize=16;endFill=1;jumpStyle=none;startArrow=classicThin;startFill=1;strokeWidth=2;fontStyle=1" parent="1" edge="1">
          <mxGeometry width="50" height="50" relative="1" as="geometry">
            <mxPoint x="490" y="130" as="sourcePoint" />
            <mxPoint x="750" y="320" as="targetPoint" />
          </mxGeometry>
        </mxCell>
        <mxCell id="Nuy2MIkLEGF_IpoQAE7Y-94" value="" style="endArrow=classicThin;html=1;rounded=0;sketch=0;fontFamily=Times New Roman;fontSize=16;endFill=1;jumpStyle=none;startArrow=none;startFill=1;strokeWidth=2;fontStyle=1" parent="1" source="Nuy2MIkLEGF_IpoQAE7Y-168" edge="1">
          <mxGeometry width="50" height="50" relative="1" as="geometry">
            <mxPoint x="480" y="100" as="sourcePoint" />
            <mxPoint x="770" y="190" as="targetPoint" />
          </mxGeometry>
        </mxCell>
        <mxCell id="Nuy2MIkLEGF_IpoQAE7Y-95" value="" style="endArrow=classicThin;html=1;rounded=0;sketch=0;fontFamily=Times New Roman;fontSize=16;endFill=1;jumpStyle=none;startArrow=classicThin;startFill=1;strokeWidth=2;fontStyle=1" parent="1" edge="1">
          <mxGeometry width="50" height="50" relative="1" as="geometry">
            <mxPoint x="480" y="100" as="sourcePoint" />
            <mxPoint x="750" y="320" as="targetPoint" />
          </mxGeometry>
        </mxCell>
        <mxCell id="Nuy2MIkLEGF_IpoQAE7Y-103" value="" style="rounded=0;whiteSpace=wrap;html=1;fontFamily=Times New Roman;fontSize=16;fillColor=default;dashed=1;strokeWidth=2;fontStyle=1" parent="1" vertex="1">
          <mxGeometry x="394" y="270" width="50" height="230" as="geometry" />
        </mxCell>
        <mxCell id="Nuy2MIkLEGF_IpoQAE7Y-105" value="&lt;span style=&quot;font-size: 16px;&quot;&gt;......&lt;/span&gt;" style="text;html=1;strokeColor=none;fillColor=none;align=center;verticalAlign=middle;whiteSpace=wrap;rounded=0;fontFamily=Times New Roman;fontSize=16;dashed=1;strokeWidth=2;fontStyle=1" parent="1" vertex="1">
          <mxGeometry x="510" y="363" width="60" height="30" as="geometry" />
        </mxCell>
        <mxCell id="Nuy2MIkLEGF_IpoQAE7Y-114" style="edgeStyle=orthogonalEdgeStyle;rounded=0;sketch=0;jumpStyle=none;orthogonalLoop=1;jettySize=auto;html=1;exitX=0.5;exitY=1;exitDx=0;exitDy=0;entryX=0.5;entryY=0;entryDx=0;entryDy=0;fontFamily=Times New Roman;fontSize=16;startArrow=none;startFill=0;endArrow=classicThin;endFill=1;dashed=1;strokeWidth=2;fontStyle=1" parent="1" source="Nuy2MIkLEGF_IpoQAE7Y-107" target="Nuy2MIkLEGF_IpoQAE7Y-108" edge="1">
          <mxGeometry relative="1" as="geometry" />
        </mxCell>
        <mxCell id="Nuy2MIkLEGF_IpoQAE7Y-107" value="" style="ellipse;whiteSpace=wrap;html=1;aspect=fixed;fillColor=#ffe6cc;strokeColor=#d79b00;dashed=1;strokeWidth=2;fontSize=16;fontStyle=1" parent="1" vertex="1">
          <mxGeometry x="404" y="282.15000000000003" width="30" height="30" as="geometry" />
        </mxCell>
        <mxCell id="Nuy2MIkLEGF_IpoQAE7Y-108" value="" style="ellipse;whiteSpace=wrap;html=1;aspect=fixed;fillColor=#ffe6cc;strokeColor=#d79b00;dashed=1;strokeWidth=2;fontSize=16;fontStyle=1" parent="1" vertex="1">
          <mxGeometry x="404" y="335.96999999999997" width="30" height="30" as="geometry" />
        </mxCell>
        <mxCell id="Nuy2MIkLEGF_IpoQAE7Y-109" value="" style="ellipse;whiteSpace=wrap;html=1;aspect=fixed;fillColor=#ffe6cc;strokeColor=#d79b00;dashed=1;strokeWidth=2;fontSize=16;fontStyle=1" parent="1" vertex="1">
          <mxGeometry x="404" y="455" width="30" height="30" as="geometry" />
        </mxCell>
        <mxCell id="Nuy2MIkLEGF_IpoQAE7Y-118" value="&lt;span style=&quot;font-size: 16px;&quot;&gt;......&lt;/span&gt;" style="text;html=1;strokeColor=none;fillColor=none;align=center;verticalAlign=middle;whiteSpace=wrap;rounded=0;fontFamily=Times New Roman;fontSize=16;rotation=90;dashed=1;strokeWidth=2;fontStyle=1" parent="1" vertex="1">
          <mxGeometry x="394" y="393" width="60" height="30" as="geometry" />
        </mxCell>
        <mxCell id="Nuy2MIkLEGF_IpoQAE7Y-121" style="edgeStyle=orthogonalEdgeStyle;rounded=0;sketch=0;jumpStyle=none;orthogonalLoop=1;jettySize=auto;html=1;exitX=0.5;exitY=1;exitDx=0;exitDy=0;entryX=0.5;entryY=0;entryDx=0;entryDy=0;fontFamily=Times New Roman;fontSize=16;startArrow=none;startFill=0;endArrow=classicThin;endFill=1;dashed=1;strokeWidth=2;fontStyle=1" parent="1" edge="1">
          <mxGeometry relative="1" as="geometry">
            <mxPoint x="419" y="368.1500000000001" as="sourcePoint" />
            <mxPoint x="419" y="391.97" as="targetPoint" />
          </mxGeometry>
        </mxCell>
        <mxCell id="Nuy2MIkLEGF_IpoQAE7Y-122" style="edgeStyle=orthogonalEdgeStyle;rounded=0;sketch=0;jumpStyle=none;orthogonalLoop=1;jettySize=auto;html=1;exitX=0.5;exitY=1;exitDx=0;exitDy=0;fontFamily=Times New Roman;fontSize=16;startArrow=none;startFill=0;endArrow=classicThin;endFill=1;dashed=1;strokeWidth=2;fontStyle=1" parent="1" edge="1">
          <mxGeometry relative="1" as="geometry">
            <mxPoint x="420" y="430.1500000000001" as="sourcePoint" />
            <mxPoint x="420" y="454" as="targetPoint" />
          </mxGeometry>
        </mxCell>
        <mxCell id="Nuy2MIkLEGF_IpoQAE7Y-123" value="" style="rounded=0;whiteSpace=wrap;html=1;fontFamily=Times New Roman;fontSize=16;fillColor=default;dashed=1;strokeWidth=2;fontStyle=1" parent="1" vertex="1">
          <mxGeometry x="465" y="270" width="50" height="230" as="geometry" />
        </mxCell>
        <mxCell id="Nuy2MIkLEGF_IpoQAE7Y-124" style="edgeStyle=orthogonalEdgeStyle;rounded=0;sketch=0;jumpStyle=none;orthogonalLoop=1;jettySize=auto;html=1;exitX=0.5;exitY=1;exitDx=0;exitDy=0;entryX=0.5;entryY=0;entryDx=0;entryDy=0;fontFamily=Times New Roman;fontSize=16;startArrow=none;startFill=0;endArrow=classicThin;endFill=1;dashed=1;strokeWidth=2;fontStyle=1" parent="1" source="Nuy2MIkLEGF_IpoQAE7Y-125" target="Nuy2MIkLEGF_IpoQAE7Y-126" edge="1">
          <mxGeometry relative="1" as="geometry" />
        </mxCell>
        <mxCell id="Nuy2MIkLEGF_IpoQAE7Y-125" value="" style="ellipse;whiteSpace=wrap;html=1;aspect=fixed;fillColor=#ffe6cc;strokeColor=#d79b00;dashed=1;strokeWidth=2;fontSize=16;fontStyle=1" parent="1" vertex="1">
          <mxGeometry x="475" y="282.15000000000003" width="30" height="30" as="geometry" />
        </mxCell>
        <mxCell id="Nuy2MIkLEGF_IpoQAE7Y-126" value="" style="ellipse;whiteSpace=wrap;html=1;aspect=fixed;fillColor=#ffe6cc;strokeColor=#d79b00;dashed=1;strokeWidth=2;fontSize=16;fontStyle=1" parent="1" vertex="1">
          <mxGeometry x="475" y="335.96999999999997" width="30" height="30" as="geometry" />
        </mxCell>
        <mxCell id="Nuy2MIkLEGF_IpoQAE7Y-127" value="" style="ellipse;whiteSpace=wrap;html=1;aspect=fixed;fillColor=#ffe6cc;strokeColor=#d79b00;dashed=1;strokeWidth=2;fontSize=16;fontStyle=1" parent="1" vertex="1">
          <mxGeometry x="475" y="455" width="30" height="30" as="geometry" />
        </mxCell>
        <mxCell id="Nuy2MIkLEGF_IpoQAE7Y-128" value="&lt;span style=&quot;font-size: 16px;&quot;&gt;......&lt;/span&gt;" style="text;html=1;strokeColor=none;fillColor=none;align=center;verticalAlign=middle;whiteSpace=wrap;rounded=0;fontFamily=Times New Roman;fontSize=16;rotation=90;dashed=1;strokeWidth=2;fontStyle=1" parent="1" vertex="1">
          <mxGeometry x="465" y="393" width="60" height="30" as="geometry" />
        </mxCell>
        <mxCell id="Nuy2MIkLEGF_IpoQAE7Y-129" style="edgeStyle=orthogonalEdgeStyle;rounded=0;sketch=0;jumpStyle=none;orthogonalLoop=1;jettySize=auto;html=1;exitX=0.5;exitY=1;exitDx=0;exitDy=0;entryX=0.5;entryY=0;entryDx=0;entryDy=0;fontFamily=Times New Roman;fontSize=16;startArrow=none;startFill=0;endArrow=classicThin;endFill=1;dashed=1;strokeWidth=2;fontStyle=1" parent="1" edge="1">
          <mxGeometry relative="1" as="geometry">
            <mxPoint x="490" y="368.1500000000001" as="sourcePoint" />
            <mxPoint x="490" y="391.97" as="targetPoint" />
          </mxGeometry>
        </mxCell>
        <mxCell id="Nuy2MIkLEGF_IpoQAE7Y-130" style="edgeStyle=orthogonalEdgeStyle;rounded=0;sketch=0;jumpStyle=none;orthogonalLoop=1;jettySize=auto;html=1;exitX=0.5;exitY=1;exitDx=0;exitDy=0;fontFamily=Times New Roman;fontSize=16;startArrow=none;startFill=0;endArrow=classicThin;endFill=1;dashed=1;strokeWidth=2;fontStyle=1" parent="1" edge="1">
          <mxGeometry relative="1" as="geometry">
            <mxPoint x="491" y="430.1500000000001" as="sourcePoint" />
            <mxPoint x="491" y="454" as="targetPoint" />
          </mxGeometry>
        </mxCell>
        <mxCell id="Nuy2MIkLEGF_IpoQAE7Y-131" value="" style="rounded=0;whiteSpace=wrap;html=1;fontFamily=Times New Roman;fontSize=16;fillColor=default;dashed=1;strokeWidth=2;fontStyle=1" parent="1" vertex="1">
          <mxGeometry x="560" y="270.48" width="50" height="230" as="geometry" />
        </mxCell>
        <mxCell id="Nuy2MIkLEGF_IpoQAE7Y-132" style="edgeStyle=orthogonalEdgeStyle;rounded=0;sketch=0;jumpStyle=none;orthogonalLoop=1;jettySize=auto;html=1;exitX=0.5;exitY=1;exitDx=0;exitDy=0;entryX=0.5;entryY=0;entryDx=0;entryDy=0;fontFamily=Times New Roman;fontSize=16;startArrow=none;startFill=0;endArrow=classicThin;endFill=1;dashed=1;strokeWidth=2;fontStyle=1" parent="1" source="Nuy2MIkLEGF_IpoQAE7Y-133" target="Nuy2MIkLEGF_IpoQAE7Y-134" edge="1">
          <mxGeometry relative="1" as="geometry" />
        </mxCell>
        <mxCell id="Nuy2MIkLEGF_IpoQAE7Y-133" value="" style="ellipse;whiteSpace=wrap;html=1;aspect=fixed;fillColor=#ffe6cc;strokeColor=#d79b00;dashed=1;strokeWidth=2;fontSize=16;fontStyle=1" parent="1" vertex="1">
          <mxGeometry x="570" y="282.63000000000005" width="30" height="30" as="geometry" />
        </mxCell>
        <mxCell id="Nuy2MIkLEGF_IpoQAE7Y-134" value="" style="ellipse;whiteSpace=wrap;html=1;aspect=fixed;fillColor=#ffe6cc;strokeColor=#d79b00;dashed=1;strokeWidth=2;fontSize=16;fontStyle=1" parent="1" vertex="1">
          <mxGeometry x="570" y="336.45" width="30" height="30" as="geometry" />
        </mxCell>
        <mxCell id="Nuy2MIkLEGF_IpoQAE7Y-135" value="" style="ellipse;whiteSpace=wrap;html=1;aspect=fixed;fillColor=#ffe6cc;strokeColor=#d79b00;dashed=1;strokeWidth=2;fontSize=16;fontStyle=1" parent="1" vertex="1">
          <mxGeometry x="570" y="455.48" width="30" height="30" as="geometry" />
        </mxCell>
        <mxCell id="Nuy2MIkLEGF_IpoQAE7Y-136" value="&lt;span style=&quot;font-size: 16px;&quot;&gt;......&lt;/span&gt;" style="text;html=1;strokeColor=none;fillColor=none;align=center;verticalAlign=middle;whiteSpace=wrap;rounded=0;fontFamily=Times New Roman;fontSize=16;rotation=90;dashed=1;strokeWidth=2;fontStyle=1" parent="1" vertex="1">
          <mxGeometry x="560" y="393.48" width="60" height="30" as="geometry" />
        </mxCell>
        <mxCell id="Nuy2MIkLEGF_IpoQAE7Y-137" style="edgeStyle=orthogonalEdgeStyle;rounded=0;sketch=0;jumpStyle=none;orthogonalLoop=1;jettySize=auto;html=1;exitX=0.5;exitY=1;exitDx=0;exitDy=0;entryX=0.5;entryY=0;entryDx=0;entryDy=0;fontFamily=Times New Roman;fontSize=16;startArrow=none;startFill=0;endArrow=classicThin;endFill=1;dashed=1;strokeWidth=2;fontStyle=1" parent="1" edge="1">
          <mxGeometry relative="1" as="geometry">
            <mxPoint x="585" y="368.6300000000001" as="sourcePoint" />
            <mxPoint x="585" y="392.45000000000005" as="targetPoint" />
          </mxGeometry>
        </mxCell>
        <mxCell id="Nuy2MIkLEGF_IpoQAE7Y-138" style="edgeStyle=orthogonalEdgeStyle;rounded=0;sketch=0;jumpStyle=none;orthogonalLoop=1;jettySize=auto;html=1;exitX=0.5;exitY=1;exitDx=0;exitDy=0;fontFamily=Times New Roman;fontSize=16;startArrow=none;startFill=0;endArrow=classicThin;endFill=1;dashed=1;strokeWidth=2;fontStyle=1" parent="1" edge="1">
          <mxGeometry relative="1" as="geometry">
            <mxPoint x="586" y="430.6300000000001" as="sourcePoint" />
            <mxPoint x="586" y="454.48" as="targetPoint" />
          </mxGeometry>
        </mxCell>
        <mxCell id="Nuy2MIkLEGF_IpoQAE7Y-139" value="" style="shape=curlyBracket;whiteSpace=wrap;html=1;rounded=1;flipH=1;fontFamily=Times New Roman;fontSize=16;fillColor=default;rotation=90;strokeWidth=2;fontStyle=1" parent="1" vertex="1">
          <mxGeometry x="491.5" y="392.5" width="20" height="245" as="geometry" />
        </mxCell>
        <mxCell id="Nuy2MIkLEGF_IpoQAE7Y-140" value="&lt;font style=&quot;font-size: 16px;&quot;&gt;时空知识链表1-n&lt;/font&gt;" style="text;strokeColor=none;fillColor=none;html=1;fontSize=16;fontStyle=1;verticalAlign=middle;align=center;fontFamily=Times New Roman;strokeWidth=2;" parent="1" vertex="1">
          <mxGeometry x="450" y="514" width="100" height="40" as="geometry" />
        </mxCell>
        <mxCell id="Nuy2MIkLEGF_IpoQAE7Y-141" value="" style="shape=flexArrow;endArrow=classic;html=1;rounded=0;sketch=0;fontFamily=Times New Roman;fontSize=16;jumpStyle=none;strokeWidth=2;fontStyle=1" parent="1" edge="1">
          <mxGeometry width="50" height="50" relative="1" as="geometry">
            <mxPoint x="463.5" y="177.66" as="sourcePoint" />
            <mxPoint x="463.5" y="257.66" as="targetPoint" />
          </mxGeometry>
        </mxCell>
        <mxCell id="Nuy2MIkLEGF_IpoQAE7Y-142" value="&lt;font style=&quot;font-size: 16px;&quot;&gt;&lt;span style=&quot;font-size: 16px;&quot;&gt;依时序特征重构&lt;/span&gt;&lt;/font&gt;" style="text;html=1;strokeColor=none;fillColor=none;align=center;verticalAlign=middle;whiteSpace=wrap;rounded=0;dashed=1;fontFamily=Times New Roman;fontSize=16;strokeWidth=2;fontStyle=1" parent="1" vertex="1">
          <mxGeometry x="466" y="196" width="118" height="30" as="geometry" />
        </mxCell>
        <mxCell id="Nuy2MIkLEGF_IpoQAE7Y-144" value="" style="endArrow=classicThin;html=1;rounded=0;sketch=0;fontFamily=Times New Roman;fontSize=16;endFill=1;jumpStyle=none;startArrow=classicThin;startFill=1;entryX=1;entryY=0.5;entryDx=0;entryDy=0;dashed=1;strokeWidth=2;fontStyle=1" parent="1" target="Nuy2MIkLEGF_IpoQAE7Y-133" edge="1">
          <mxGeometry width="50" height="50" relative="1" as="geometry">
            <mxPoint x="770" y="190" as="sourcePoint" />
            <mxPoint x="530" y="110" as="targetPoint" />
          </mxGeometry>
        </mxCell>
        <mxCell id="Nuy2MIkLEGF_IpoQAE7Y-145" value="" style="endArrow=classicThin;html=1;rounded=0;sketch=0;fontFamily=Times New Roman;fontSize=16;endFill=1;jumpStyle=none;startArrow=classicThin;startFill=1;entryX=1;entryY=0.5;entryDx=0;entryDy=0;dashed=1;strokeWidth=2;fontStyle=1" parent="1" target="Nuy2MIkLEGF_IpoQAE7Y-133" edge="1">
          <mxGeometry width="50" height="50" relative="1" as="geometry">
            <mxPoint x="750" y="320" as="sourcePoint" />
            <mxPoint x="610" y="307.6300000000001" as="targetPoint" />
          </mxGeometry>
        </mxCell>
        <mxCell id="Nuy2MIkLEGF_IpoQAE7Y-146" value="" style="endArrow=classicThin;html=1;rounded=0;sketch=0;fontFamily=Times New Roman;fontSize=16;endFill=1;jumpStyle=none;startArrow=classicThin;startFill=1;entryX=1;entryY=0.5;entryDx=0;entryDy=0;dashed=1;strokeWidth=2;fontStyle=1" parent="1" target="Nuy2MIkLEGF_IpoQAE7Y-134" edge="1">
          <mxGeometry width="50" height="50" relative="1" as="geometry">
            <mxPoint x="770" y="190" as="sourcePoint" />
            <mxPoint x="620" y="317.6300000000001" as="targetPoint" />
          </mxGeometry>
        </mxCell>
        <mxCell id="Nuy2MIkLEGF_IpoQAE7Y-147" value="" style="endArrow=classicThin;html=1;rounded=0;sketch=0;fontFamily=Times New Roman;fontSize=16;endFill=1;jumpStyle=none;startArrow=classicThin;startFill=1;entryX=1;entryY=0.5;entryDx=0;entryDy=0;dashed=1;strokeWidth=2;fontStyle=1" parent="1" target="Nuy2MIkLEGF_IpoQAE7Y-134" edge="1">
          <mxGeometry width="50" height="50" relative="1" as="geometry">
            <mxPoint x="750" y="320" as="sourcePoint" />
            <mxPoint x="630" y="327.6300000000001" as="targetPoint" />
          </mxGeometry>
        </mxCell>
        <mxCell id="Nuy2MIkLEGF_IpoQAE7Y-148" value="" style="endArrow=classicThin;html=1;rounded=0;sketch=0;fontFamily=Times New Roman;fontSize=16;endFill=1;jumpStyle=none;startArrow=classicThin;startFill=1;entryX=1;entryY=0.5;entryDx=0;entryDy=0;dashed=1;strokeWidth=2;fontStyle=1" parent="1" target="Nuy2MIkLEGF_IpoQAE7Y-135" edge="1">
          <mxGeometry width="50" height="50" relative="1" as="geometry">
            <mxPoint x="750" y="320" as="sourcePoint" />
            <mxPoint x="640" y="337.6300000000001" as="targetPoint" />
          </mxGeometry>
        </mxCell>
        <mxCell id="Nuy2MIkLEGF_IpoQAE7Y-149" value="" style="endArrow=classicThin;html=1;rounded=0;sketch=0;fontFamily=Times New Roman;fontSize=16;endFill=1;jumpStyle=none;startArrow=classicThin;startFill=1;entryX=1;entryY=0.5;entryDx=0;entryDy=0;dashed=1;strokeWidth=2;fontStyle=1" parent="1" target="Nuy2MIkLEGF_IpoQAE7Y-135" edge="1">
          <mxGeometry width="50" height="50" relative="1" as="geometry">
            <mxPoint x="770" y="190" as="sourcePoint" />
            <mxPoint x="650" y="347.6300000000001" as="targetPoint" />
          </mxGeometry>
        </mxCell>
        <mxCell id="Nuy2MIkLEGF_IpoQAE7Y-150" value="" style="endArrow=classicThin;html=1;rounded=0;sketch=0;fontFamily=Times New Roman;fontSize=16;endFill=1;jumpStyle=none;startArrow=classicThin;startFill=1;entryX=1;entryY=0.5;entryDx=0;entryDy=0;dashed=1;strokeWidth=2;fontStyle=1" parent="1" edge="1">
          <mxGeometry width="50" height="50" relative="1" as="geometry">
            <mxPoint x="780" y="200" as="sourcePoint" />
            <mxPoint x="610" y="307.6300000000001" as="targetPoint" />
          </mxGeometry>
        </mxCell>
        <mxCell id="Nuy2MIkLEGF_IpoQAE7Y-151" value="" style="endArrow=classicThin;html=1;rounded=0;sketch=0;fontFamily=Times New Roman;fontSize=16;endFill=1;jumpStyle=none;entryX=0;entryY=0.5;entryDx=0;entryDy=0;startArrow=classicThin;startFill=1;dashed=1;strokeWidth=2;fontStyle=1" parent="1" target="Nuy2MIkLEGF_IpoQAE7Y-133" edge="1">
          <mxGeometry width="50" height="50" relative="1" as="geometry">
            <mxPoint x="260" y="370" as="sourcePoint" />
            <mxPoint x="500" y="150" as="targetPoint" />
          </mxGeometry>
        </mxCell>
        <mxCell id="Nuy2MIkLEGF_IpoQAE7Y-152" value="" style="endArrow=classicThin;html=1;rounded=0;sketch=0;fontFamily=Times New Roman;fontSize=16;endFill=1;jumpStyle=none;entryX=0;entryY=0.5;entryDx=0;entryDy=0;startArrow=classicThin;startFill=1;dashed=1;strokeWidth=2;fontStyle=1" parent="1" target="Nuy2MIkLEGF_IpoQAE7Y-134" edge="1">
          <mxGeometry width="50" height="50" relative="1" as="geometry">
            <mxPoint x="260" y="370" as="sourcePoint" />
            <mxPoint x="510" y="160" as="targetPoint" />
          </mxGeometry>
        </mxCell>
        <mxCell id="Nuy2MIkLEGF_IpoQAE7Y-154" value="" style="endArrow=classicThin;html=1;rounded=0;sketch=0;fontFamily=Times New Roman;fontSize=16;endFill=1;jumpStyle=none;entryX=0;entryY=0.5;entryDx=0;entryDy=0;startArrow=classicThin;startFill=1;dashed=1;strokeWidth=2;fontStyle=1" parent="1" target="Nuy2MIkLEGF_IpoQAE7Y-135" edge="1">
          <mxGeometry width="50" height="50" relative="1" as="geometry">
            <mxPoint x="260" y="370" as="sourcePoint" />
            <mxPoint x="414" y="360.97" as="targetPoint" />
          </mxGeometry>
        </mxCell>
        <mxCell id="Nuy2MIkLEGF_IpoQAE7Y-166" value="&lt;font style=&quot;font-size: 16px;&quot;&gt;&lt;span style=&quot;font-size: 16px;&quot;&gt;相关子事件&lt;/span&gt;&lt;/font&gt;" style="text;html=1;strokeColor=none;fillColor=default;align=center;verticalAlign=middle;whiteSpace=wrap;rounded=0;dashed=1;fontFamily=Times New Roman;fontSize=16;strokeWidth=2;fontStyle=1" parent="1" vertex="1">
          <mxGeometry x="331" y="210.66" width="80" height="30" as="geometry" />
        </mxCell>
        <mxCell id="Nuy2MIkLEGF_IpoQAE7Y-168" value="&lt;font style=&quot;font-size: 16px;&quot;&gt;&lt;span style=&quot;font-size: 16px;&quot;&gt;相关时间&lt;/span&gt;&lt;/font&gt;" style="text;html=1;strokeColor=none;fillColor=default;align=center;verticalAlign=middle;whiteSpace=wrap;rounded=0;dashed=1;fontFamily=Times New Roman;fontSize=16;strokeWidth=2;fontStyle=1" parent="1" vertex="1">
          <mxGeometry x="597" y="134.48" width="68" height="30" as="geometry" />
        </mxCell>
        <mxCell id="Nuy2MIkLEGF_IpoQAE7Y-169" value="" style="endArrow=none;html=1;rounded=0;sketch=0;fontFamily=Times New Roman;fontSize=16;endFill=1;jumpStyle=none;startArrow=classicThin;startFill=1;strokeWidth=2;fontStyle=1" parent="1" target="Nuy2MIkLEGF_IpoQAE7Y-168" edge="1">
          <mxGeometry width="50" height="50" relative="1" as="geometry">
            <mxPoint x="480" y="100" as="sourcePoint" />
            <mxPoint x="770" y="190" as="targetPoint" />
          </mxGeometry>
        </mxCell>
        <mxCell id="Nuy2MIkLEGF_IpoQAE7Y-170" value="&lt;font style=&quot;font-size: 16px;&quot;&gt;&lt;span style=&quot;font-size: 16px;&quot;&gt;相关地点&lt;/span&gt;&lt;/font&gt;" style="text;html=1;strokeColor=none;fillColor=default;align=center;verticalAlign=middle;whiteSpace=wrap;rounded=0;dashed=1;fontFamily=Times New Roman;fontSize=16;strokeWidth=2;fontStyle=1" parent="1" vertex="1">
          <mxGeometry x="586" y="190.66" width="70" height="30" as="geometry" />
        </mxCell>
        <mxCell id="Nuy2MIkLEGF_IpoQAE7Y-171" value="" style="endArrow=none;html=1;rounded=0;sketch=0;fontFamily=Times New Roman;fontSize=16;endFill=1;jumpStyle=none;startArrow=classicThin;startFill=1;strokeWidth=2;fontStyle=1" parent="1" target="Nuy2MIkLEGF_IpoQAE7Y-170" edge="1">
          <mxGeometry width="50" height="50" relative="1" as="geometry">
            <mxPoint x="750" y="320" as="sourcePoint" />
            <mxPoint x="520" y="100" as="targetPoint" />
          </mxGeometry>
        </mxCell>
        <mxCell id="Nuy2MIkLEGF_IpoQAE7Y-172" value="&lt;font style=&quot;font-size: 16px;&quot;&gt;&lt;span style=&quot;font-size: 16px;&quot;&gt;相关子事件&lt;/span&gt;&lt;/font&gt;" style="text;html=1;strokeColor=none;fillColor=default;align=center;verticalAlign=middle;whiteSpace=wrap;rounded=0;dashed=1;fontFamily=Times New Roman;fontSize=16;strokeWidth=2;fontStyle=1" parent="1" vertex="1">
          <mxGeometry x="330" y="327" width="21.5" height="90" as="geometry" />
        </mxCell>
        <mxCell id="Nuy2MIkLEGF_IpoQAE7Y-176" value="&lt;font style=&quot;font-size: 16px;&quot;&gt;&lt;span style=&quot;font-size: 16px;&quot;&gt;相关时空&lt;/span&gt;&lt;/font&gt;" style="text;html=1;strokeColor=none;fillColor=default;align=center;verticalAlign=middle;whiteSpace=wrap;rounded=0;dashed=1;fontFamily=Times New Roman;fontSize=16;strokeWidth=2;fontStyle=1" parent="1" vertex="1">
          <mxGeometry x="630" y="306.45" width="70" height="30" as="geometry" />
        </mxCell>
        <mxCell id="Nuy2MIkLEGF_IpoQAE7Y-177" value="&lt;font style=&quot;font-size: 16px;&quot;&gt;&lt;span style=&quot;font-size: 16px;&quot;&gt;时序关系&lt;/span&gt;&lt;/font&gt;" style="text;html=1;align=center;verticalAlign=middle;whiteSpace=wrap;rounded=0;dashed=1;fontFamily=Times New Roman;fontSize=16;fillColor=default;strokeWidth=2;fontStyle=1" parent="1" vertex="1">
          <mxGeometry x="510" y="319.03" width="71" height="7.97" as="geometry" />
        </mxCell>
        <mxCell id="Nuy2MIkLEGF_IpoQAE7Y-178" value="&lt;font style=&quot;font-size: 16px;&quot;&gt;&lt;span style=&quot;font-size: 16px;&quot;&gt;时序关系&lt;/span&gt;&lt;/font&gt;" style="text;html=1;align=center;verticalAlign=middle;whiteSpace=wrap;rounded=0;dashed=1;fontFamily=Times New Roman;fontSize=16;fillColor=default;strokeWidth=2;fontStyle=1" parent="1" vertex="1">
          <mxGeometry x="510" y="434.33" width="70" height="7.97" as="geometry" />
        </mxCell>
      </root>
    </mxGraphModel>
  </diagram>
</mxfile>
